<?xml version="1.0" encoding="utf-8"?>
<!-- Generator: Adobe Illustrator 15.0.0, SVG Export Plug-In . SVG Version: 6.00 Build 0)  -->
<!DOCTYPE svg PUBLIC "-//W3C//DTD SVG 1.1//EN" "http://www.w3.org/Graphics/SVG/1.1/DTD/svg11.dtd">
<svg version="1.1" id="_x31_90x210_ramka" xmlns="http://www.w3.org/2000/svg" xmlns:xlink="http://www.w3.org/1999/xlink" x="0px"
	 y="0px" width="538.583px" height="538.584px" viewBox="0 0 538.583 538.584" enable-background="new 0 0 538.583 538.584"
	 xml:space="preserve">
<polygon fill="#FFFFFF" stroke="#000000" stroke-linecap="round" stroke-linejoin="round" points="522.333,524.411 16.092,524.411 
	16.092,113.03 518.743,113.03 522.333,201.782 "/>
<rect x="262.848" y="109.641" fill="#FFFFFF" stroke="#000000" stroke-linecap="round" stroke-linejoin="round" width="12.613" height="409.731"/>
<rect x="136.85" y="109.641" fill="#FFFFFF" stroke="#000000" stroke-linecap="round" stroke-linejoin="round" width="12.615" height="409.731"/>
<rect x="388.844" y="109.641" fill="#FFFFFF" stroke="#000000" stroke-linecap="round" stroke-linejoin="round" width="12.615" height="409.731"/>
<g>
	<g>
		
			<rect x="16.092" y="482.602" fill="#FFFFFF" stroke="#000000" stroke-linecap="round" stroke-linejoin="round" width="506.241" height="28.943"/>
		
			<rect x="16.092" y="433.286" fill="#FFFFFF" stroke="#000000" stroke-linecap="round" stroke-linejoin="round" width="506.241" height="28.938"/>
		
			<rect x="16.092" y="383.959" fill="#FFFFFF" stroke="#000000" stroke-linecap="round" stroke-linejoin="round" width="506.241" height="28.939"/>
		
			<rect x="16.092" y="334.639" fill="#FFFFFF" stroke="#000000" stroke-linecap="round" stroke-linejoin="round" width="506.241" height="28.938"/>
		
			<rect x="16.092" y="285.315" fill="#FFFFFF" stroke="#000000" stroke-linecap="round" stroke-linejoin="round" width="506.241" height="28.94"/>
	</g>
	
		<rect x="16.092" y="235.986" fill="#FFFFFF" stroke="#000000" stroke-linecap="round" stroke-linejoin="round" width="506.241" height="28.944"/>
	
		<rect x="16.092" y="186.663" fill="#FFFFFF" stroke="#000000" stroke-linecap="round" stroke-linejoin="round" width="506.241" height="28.943"/>
	<polygon fill="#FFFFFF" stroke="#000000" stroke-linecap="round" stroke-linejoin="round" points="518.104,137.342 16.092,137.342 
		16.092,166.284 514.471,166.284 	"/>
</g>
<rect x="14.29" y="511.546" fill="#FFFFFF" stroke="#000000" stroke-linecap="round" stroke-linejoin="round" width="510.236" height="12.864"/>
<rect x="14.29" y="105.639" fill="#FFFFFF" stroke="#000000" stroke-linecap="round" stroke-linejoin="round" width="510.236" height="12.785"/>
<rect x="14.29" y="105.639" fill="#FFFFFF" stroke="#000000" stroke-linecap="round" stroke-linejoin="round" width="12.866" height="418.771"/>
<rect x="511.661" y="105.639" fill="#FFFFFF" stroke="#000000" stroke-linecap="round" stroke-linejoin="round" width="12.865" height="418.771"/>
</svg>
