<?xml version="1.0" encoding="utf-8"?>
<!-- Generator: Adobe Illustrator 15.0.0, SVG Export Plug-In . SVG Version: 6.00 Build 0)  -->
<!DOCTYPE svg PUBLIC "-//W3C//DTD SVG 1.1//EN" "http://www.w3.org/Graphics/SVG/1.1/DTD/svg11.dtd">
<svg version="1.1" id="_x31_90x210_ramka" xmlns="http://www.w3.org/2000/svg" xmlns:xlink="http://www.w3.org/1999/xlink" x="0px"
	 y="0px" width="538.583px" height="538.584px" viewBox="0 0 538.583 538.584" enable-background="new 0 0 538.583 538.584"
	 xml:space="preserve">
<polygon fill="#FFFFFF" stroke="#000000" stroke-linecap="round" stroke-linejoin="round" points="390.756,524.411 141.255,524.411 
	141.255,24.309 390.756,272.653 "/>
<polygon fill="#FFFFFF" stroke="#000000" stroke-linecap="round" stroke-linejoin="round" points="275.559,524.411 263.025,524.411 
	263.025,145.142 275.559,158.048 "/>
<rect x="141.255" y="511.628" fill="#FFFFFF" stroke="#000000" stroke-linecap="round" stroke-linejoin="round" width="249.501" height="12.782"/>
<g>
	
		<rect x="141.255" y="483.204" fill="#FFFFFF" stroke="#000000" stroke-linecap="round" stroke-linejoin="round" width="249.501" height="28.425"/>
	
		<rect x="141.255" y="434.766" fill="#FFFFFF" stroke="#000000" stroke-linecap="round" stroke-linejoin="round" width="249.501" height="28.424"/>
	
		<rect x="141.255" y="386.329" fill="#FFFFFF" stroke="#000000" stroke-linecap="round" stroke-linejoin="round" width="249.501" height="28.426"/>
	<polygon fill="#FFFFFF" stroke="#000000" stroke-linecap="round" stroke-linejoin="round" points="389.36,337.893 141.255,337.893 
		141.255,366.317 389.139,366.317 	"/>
	
		<rect x="141.255" y="289.806" fill="#FFFFFF" stroke="#000000" stroke-linecap="round" stroke-linejoin="round" width="249.501" height="28.423"/>
	<polygon fill="#FFFFFF" stroke="#000000" stroke-linecap="round" stroke-linejoin="round" points="359.325,241.368 
		141.255,241.368 141.255,269.792 390.756,269.792 	"/>
	<polygon fill="#FFFFFF" stroke="#000000" stroke-linecap="round" stroke-linejoin="round" points="314.862,192.932 
		141.255,192.932 141.255,221.354 335.405,221.354 	"/>
	<polygon fill="#FFFFFF" stroke="#000000" stroke-linecap="round" stroke-linejoin="round" points="264.465,144.845 
		141.255,144.845 141.255,173.268 285.934,173.268 	"/>
	<polygon fill="#FFFFFF" stroke="#000000" stroke-linecap="round" stroke-linejoin="round" points="214.094,96.408 141.255,96.408 
		141.255,124.831 237.526,124.831 	"/>
	<polygon fill="#FFFFFF" stroke="#000000" stroke-linecap="round" stroke-linejoin="round" points="169.725,47.97 141.255,47.97 
		141.255,76.394 194.966,76.394 	"/>
</g>
<polygon fill="#FFFFFF" stroke="#000000" stroke-linecap="round" stroke-linejoin="round" points="384.95,277.887 142.61,35.772 
	151.38,26.638 393.721,268.751 "/>
<polygon fill="#FFFFFF" stroke="#000000" stroke-linecap="round" stroke-linejoin="round" points="153.79,524.411 141.255,523.901 
	141.255,16.631 153.79,29.042 "/>
<polygon fill="#FFFFFF" stroke="#000000" stroke-linecap="round" stroke-linejoin="round" points="396.334,524.411 383.803,524.411 
	383.803,259.12 396.334,271.284 "/>
</svg>
