<?xml version="1.0" encoding="utf-8"?>
<!-- Generator: Adobe Illustrator 15.0.0, SVG Export Plug-In . SVG Version: 6.00 Build 0)  -->
<!DOCTYPE svg PUBLIC "-//W3C//DTD SVG 1.1//EN" "http://www.w3.org/Graphics/SVG/1.1/DTD/svg11.dtd">
<svg version="1.1" id="Warstwa_1" xmlns="http://www.w3.org/2000/svg" xmlns:xlink="http://www.w3.org/1999/xlink" x="0px" y="0px"
	 width="538.583px" height="538.584px" viewBox="0 0 538.583 538.584" enable-background="new 0 0 538.583 538.584"
	 xml:space="preserve">
<g id="Warstwa_2">
	<path fill="#FFFFFF" stroke="#000000" stroke-linecap="round" stroke-linejoin="round" d="M313.37,99.635"/>
	<polygon fill="#FFFFFF" stroke="#000000" stroke-linecap="round" stroke-linejoin="round" points="348.637,524.411 187.83,524.411 
		187.83,22.945 348.038,22.945 344.174,104.743 	"/>
	
		<rect x="263.608" y="22.945" fill="#FFFFFF" stroke="#000000" stroke-linecap="round" stroke-linejoin="round" width="12.227" height="497.272"/>
	<g>
		<g>
			
				<rect x="187.83" y="483.085" fill="#FFFFFF" stroke="#000000" stroke-linecap="round" stroke-linejoin="round" width="160.67" height="28.461"/>
			
				<rect x="187.83" y="434.591" fill="#FFFFFF" stroke="#000000" stroke-linecap="round" stroke-linejoin="round" width="160.67" height="28.455"/>
			
				<rect x="187.83" y="386.086" fill="#FFFFFF" stroke="#000000" stroke-linecap="round" stroke-linejoin="round" width="160.67" height="28.457"/>
			
				<rect x="187.83" y="337.588" fill="#FFFFFF" stroke="#000000" stroke-linecap="round" stroke-linejoin="round" width="160.67" height="28.455"/>
			
				<rect x="187.83" y="289.086" fill="#FFFFFF" stroke="#000000" stroke-linecap="round" stroke-linejoin="round" width="160.67" height="28.459"/>
		</g>
		<g>
			
				<rect x="187.83" y="240.58" fill="#FFFFFF" stroke="#000000" stroke-linecap="round" stroke-linejoin="round" width="160.67" height="28.461"/>
			
				<rect x="187.83" y="192.079" fill="#FFFFFF" stroke="#000000" stroke-linecap="round" stroke-linejoin="round" width="160.67" height="28.46"/>
			
				<rect x="187.83" y="143.58" fill="#FFFFFF" stroke="#000000" stroke-linecap="round" stroke-linejoin="round" width="160.67" height="28.459"/>
			
				<rect x="187.83" y="95.079" fill="#FFFFFF" stroke="#000000" stroke-linecap="round" stroke-linejoin="round" width="160.67" height="28.46"/>
		</g>
		<polygon fill="#FFFFFF" stroke="#000000" stroke-linecap="round" stroke-linejoin="round" points="345.708,46.217 188.904,46.217 
			188.904,74.679 347.014,74.679 		"/>
	</g>
	
		<rect x="184.676" y="511.546" fill="#FFFFFF" stroke="#000000" stroke-linecap="round" stroke-linejoin="round" width="170.09" height="12.864"/>
	
		<rect x="184.676" y="14.174" fill="#FFFFFF" stroke="#000000" stroke-linecap="round" stroke-linejoin="round" width="170.09" height="12.786"/>
	
		<rect x="184.676" y="14.153" fill="#FFFFFF" stroke="#000000" stroke-linecap="round" stroke-linejoin="round" width="12.537" height="510.258"/>
	
		<rect x="342.229" y="14.153" fill="#FFFFFF" stroke="#000000" stroke-linecap="round" stroke-linejoin="round" width="12.537" height="510.258"/>
</g>
</svg>
