<?xml version="1.0" encoding="utf-8"?>
<!-- Generator: Adobe Illustrator 15.0.0, SVG Export Plug-In . SVG Version: 6.00 Build 0)  -->
<!DOCTYPE svg PUBLIC "-//W3C//DTD SVG 1.1//EN" "http://www.w3.org/Graphics/SVG/1.1/DTD/svg11.dtd">
<svg version="1.1" id="Warstwa_1" xmlns="http://www.w3.org/2000/svg" xmlns:xlink="http://www.w3.org/1999/xlink" x="0px" y="0px"
	 width="538.583px" height="538.584px" viewBox="0 0 538.583 538.584" enable-background="new 0 0 538.583 538.584"
	 xml:space="preserve">
<g id="Warstwa_2">
	<polygon fill="#FFFFFF" stroke="#000000" stroke-linecap="round" stroke-linejoin="round" points="436.995,524.411 
		102.818,524.411 103.441,22.945 433.487,22.945 437.618,115.025 	"/>
	<path fill="#FFFFFF" stroke="#000000" stroke-linecap="round" stroke-linejoin="round" d="M159.346,58.16"/>
	<path fill="#FFFFFF" stroke="#000000" stroke-linecap="round" stroke-linejoin="round" d="M353.864,99.635"/>
	
		<rect x="208.783" y="21.819" fill="#FFFFFF" stroke="#000000" stroke-linecap="round" stroke-linejoin="round" width="12.533" height="500.015"/>
	
		<rect x="317.696" y="18.249" fill="#FFFFFF" stroke="#000000" stroke-linecap="round" stroke-linejoin="round" width="12.531" height="500.014"/>
	<g>
		<g>
			
				<rect x="102.337" y="483.063" fill="#FFFFFF" stroke="#000000" stroke-linecap="round" stroke-linejoin="round" width="332.775" height="28.482"/>
			
				<rect x="102.337" y="434.534" fill="#FFFFFF" stroke="#000000" stroke-linecap="round" stroke-linejoin="round" width="332.775" height="28.478"/>
			
				<rect x="102.337" y="385.997" fill="#FFFFFF" stroke="#000000" stroke-linecap="round" stroke-linejoin="round" width="332.775" height="28.478"/>
			
				<rect x="102.337" y="337.461" fill="#FFFFFF" stroke="#000000" stroke-linecap="round" stroke-linejoin="round" width="332.775" height="28.476"/>
			
				<rect x="102.337" y="288.924" fill="#FFFFFF" stroke="#000000" stroke-linecap="round" stroke-linejoin="round" width="332.775" height="28.48"/>
		</g>
		<g>
			
				<rect x="102.337" y="240.382" fill="#FFFFFF" stroke="#000000" stroke-linecap="round" stroke-linejoin="round" width="332.775" height="28.482"/>
			
				<rect x="102.337" y="191.846" fill="#FFFFFF" stroke="#000000" stroke-linecap="round" stroke-linejoin="round" width="332.775" height="28.48"/>
			
				<rect x="102.337" y="143.311" fill="#FFFFFF" stroke="#000000" stroke-linecap="round" stroke-linejoin="round" width="332.775" height="28.479"/>
			
				<rect x="102.337" y="94.775" fill="#FFFFFF" stroke="#000000" stroke-linecap="round" stroke-linejoin="round" width="332.775" height="28.48"/>
		</g>
		<polygon fill="#FFFFFF" stroke="#000000" stroke-linecap="round" stroke-linejoin="round" points="431.565,45.877 103.41,45.877 
			103.41,74.359 433.438,74.359 		"/>
	</g>
	
		<rect x="99.622" y="511.546" fill="#FFFFFF" stroke="#000000" stroke-linecap="round" stroke-linejoin="round" width="340.158" height="12.864"/>
	
		<rect x="99.622" y="14.174" fill="#FFFFFF" stroke="#000000" stroke-linecap="round" stroke-linejoin="round" width="340.158" height="12.786"/>
	
		<rect x="99.622" y="14.174" fill="#FFFFFF" stroke="#000000" stroke-linecap="round" stroke-linejoin="round" width="12.783" height="510.237"/>
	
		<rect x="426.997" y="14.174" fill="#FFFFFF" stroke="#000000" stroke-linecap="round" stroke-linejoin="round" width="12.783" height="510.237"/>
</g>
</svg>
