<?xml version="1.0" encoding="utf-8"?>
<!-- Generator: Adobe Illustrator 15.0.0, SVG Export Plug-In . SVG Version: 6.00 Build 0)  -->
<!DOCTYPE svg PUBLIC "-//W3C//DTD SVG 1.1//EN" "http://www.w3.org/Graphics/SVG/1.1/DTD/svg11.dtd">
<svg version="1.1" id="Warstwa_1" xmlns="http://www.w3.org/2000/svg" xmlns:xlink="http://www.w3.org/1999/xlink" x="0px" y="0px"
	 width="538.583px" height="538.584px" viewBox="0 0 538.583 538.584" enable-background="new 0 0 538.583 538.584"
	 xml:space="preserve">
<g id="Warstwa_2">
	<path fill="#FFFFFF" stroke="#000000" stroke-linecap="round" stroke-linejoin="round" d="M477.479,98.662"/>
	<path fill="#FFFFFF" stroke="#000000" stroke-linecap="round" stroke-linejoin="round" d="M312.319,99.302"/>
	<polygon fill="#FFFFFF" stroke="#000000" stroke-linecap="round" stroke-linejoin="round" points="479.405,524.077 58.707,524.077 
		59.33,22.611 479,22.611 480.028,114.691 	"/>
	
		<rect x="332.842" y="17.915" fill="#FFFFFF" stroke="#000000" stroke-linecap="round" stroke-linejoin="round" width="12.535" height="500.014"/>
	
		<rect x="195.582" y="17.915" fill="#FFFFFF" stroke="#000000" stroke-linecap="round" stroke-linejoin="round" width="12.533" height="500.014"/>
	<g>
		<g>
			
				<rect x="58.226" y="482.75" fill="#FFFFFF" stroke="#000000" stroke-linecap="round" stroke-linejoin="round" width="419.298" height="28.462"/>
			
				<rect x="58.226" y="434.257" fill="#FFFFFF" stroke="#000000" stroke-linecap="round" stroke-linejoin="round" width="419.298" height="28.455"/>
			
				<rect x="58.226" y="385.752" fill="#FFFFFF" stroke="#000000" stroke-linecap="round" stroke-linejoin="round" width="419.298" height="28.457"/>
			
				<rect x="58.226" y="337.254" fill="#FFFFFF" stroke="#000000" stroke-linecap="round" stroke-linejoin="round" width="419.298" height="28.455"/>
			
				<rect x="58.226" y="288.752" fill="#FFFFFF" stroke="#000000" stroke-linecap="round" stroke-linejoin="round" width="419.298" height="28.459"/>
		</g>
		<g>
			
				<rect x="58.226" y="240.246" fill="#FFFFFF" stroke="#000000" stroke-linecap="round" stroke-linejoin="round" width="419.298" height="28.461"/>
			
				<rect x="58.226" y="191.745" fill="#FFFFFF" stroke="#000000" stroke-linecap="round" stroke-linejoin="round" width="419.298" height="28.46"/>
			
				<rect x="58.226" y="143.246" fill="#FFFFFF" stroke="#000000" stroke-linecap="round" stroke-linejoin="round" width="419.298" height="28.459"/>
			
				<rect x="58.226" y="94.745" fill="#FFFFFF" stroke="#000000" stroke-linecap="round" stroke-linejoin="round" width="419.298" height="28.46"/>
		</g>
		<polygon fill="#FFFFFF" stroke="#000000" stroke-linecap="round" stroke-linejoin="round" points="473.231,45.883 59.299,45.883 
			59.299,74.345 470.739,74.345 		"/>
	</g>
	
		<rect x="58.074" y="511.212" fill="#FFFFFF" stroke="#000000" stroke-linecap="round" stroke-linejoin="round" width="425.2" height="12.864"/>
	
		<rect x="58.074" y="13.84" fill="#FFFFFF" stroke="#000000" stroke-linecap="round" stroke-linejoin="round" width="425.2" height="12.786"/>
	<path fill="#FFFFFF" stroke="#000000" stroke-linecap="round" stroke-linejoin="round" d="M390.643,22.611"/>
	
		<rect x="58.074" y="13.84" fill="#FFFFFF" stroke="#000000" stroke-linecap="round" stroke-linejoin="round" width="12.783" height="510.237"/>
	
		<rect x="470.491" y="13.84" fill="#FFFFFF" stroke="#000000" stroke-linecap="round" stroke-linejoin="round" width="12.783" height="510.237"/>
</g>
</svg>
