<?xml version="1.0" encoding="utf-8"?>
<!-- Generator: Adobe Illustrator 15.0.0, SVG Export Plug-In . SVG Version: 6.00 Build 0)  -->
<!DOCTYPE svg PUBLIC "-//W3C//DTD SVG 1.1//EN" "http://www.w3.org/Graphics/SVG/1.1/DTD/svg11.dtd">
<svg version="1.1" id="Warstwa_1" xmlns="http://www.w3.org/2000/svg" xmlns:xlink="http://www.w3.org/1999/xlink" x="0px" y="0px"
	 width="538.583px" height="538.584px" viewBox="0 0 538.583 538.584" enable-background="new 0 0 538.583 538.584"
	 xml:space="preserve">
<g id="Warstwa_2">
	<polygon fill="#FFFFFF" stroke="#000000" stroke-linecap="round" stroke-linejoin="round" points="522.217,524.411 15.975,524.411 
		15.975,203.198 516.821,203.198 522.217,272.645 	"/>
	
		<rect x="262.731" y="204.005" fill="#FFFFFF" stroke="#000000" stroke-linecap="round" stroke-linejoin="round" width="12.615" height="315.37"/>
	
		<rect x="136.733" y="204.005" fill="#FFFFFF" stroke="#000000" stroke-linecap="round" stroke-linejoin="round" width="12.615" height="315.37"/>
	
		<rect x="388.727" y="204.005" fill="#FFFFFF" stroke="#000000" stroke-linecap="round" stroke-linejoin="round" width="12.615" height="315.37"/>
	<g>
		
			<rect x="15.975" y="481.858" fill="#FFFFFF" stroke="#000000" stroke-linecap="round" stroke-linejoin="round" width="506.242" height="29.688"/>
		
			<rect x="15.975" y="431.274" fill="#FFFFFF" stroke="#000000" stroke-linecap="round" stroke-linejoin="round" width="506.242" height="29.682"/>
		
			<rect x="15.975" y="380.682" fill="#FFFFFF" stroke="#000000" stroke-linecap="round" stroke-linejoin="round" width="506.242" height="29.684"/>
		
			<rect x="15.975" y="330.092" fill="#FFFFFF" stroke="#000000" stroke-linecap="round" stroke-linejoin="round" width="506.242" height="29.683"/>
		
			<rect x="15.975" y="279.502" fill="#FFFFFF" stroke="#000000" stroke-linecap="round" stroke-linejoin="round" width="506.242" height="29.685"/>
	</g>
	<polygon fill="#FFFFFF" stroke="#000000" stroke-linecap="round" stroke-linejoin="round" points="518.104,228.904 15.975,228.904 
		15.975,258.593 522.217,258.593 	"/>
	
		<rect x="14.173" y="511.546" fill="#FFFFFF" stroke="#000000" stroke-linecap="round" stroke-linejoin="round" width="510.238" height="12.864"/>
	
		<rect x="14.173" y="197.201" fill="#FFFFFF" stroke="#000000" stroke-linecap="round" stroke-linejoin="round" width="510.238" height="12.786"/>
	
		<rect x="14.173" y="197.201" fill="#FFFFFF" stroke="#000000" stroke-linecap="round" stroke-linejoin="round" width="12.866" height="327.209"/>
	
		<rect x="511.543" y="197.201" fill="#FFFFFF" stroke="#000000" stroke-linecap="round" stroke-linejoin="round" width="12.867" height="327.209"/>
</g>
</svg>
